<svg xmlns="http://www.w3.org/2000/svg">
    <defs>
        <g id="uniswap">
            <path
                d="M4.987 0.21818C4.76882 0.187011 4.75843 0.176622 4.86233 0.166232C5.05973 0.135063 5.51687 0.176622 5.83895 0.249349C6.587 0.425973 7.26233 0.883115 7.97921 1.68312L8.16622 1.9013L8.43635 1.85974C9.5896 1.67273 10.774 1.81818 11.761 2.27532C12.0312 2.4 12.4571 2.64935 12.5091 2.71169C12.5299 2.73247 12.561 2.86753 12.5818 3.0026C12.6545 3.49091 12.6234 3.85454 12.4675 4.13506C12.3844 4.29091 12.3844 4.33247 12.4364 4.46753C12.4779 4.57143 12.6026 4.64415 12.7169 4.64415C12.9662 4.64415 13.226 4.24935 13.3506 3.6987L13.4026 3.48052L13.4961 3.58441C14.026 4.17662 14.4415 4.9974 14.5039 5.57922L14.5247 5.73506L14.4312 5.6C14.2753 5.36104 14.1299 5.20519 13.9325 5.07013C13.5792 4.83117 13.2052 4.75844 12.2182 4.70649C11.3247 4.65454 10.8156 4.58182 10.3169 4.41558C9.46492 4.13506 9.02856 3.77143 8.02077 2.43117C7.57401 1.83896 7.2935 1.51688 7.01298 1.24675C6.39999 0.654544 5.787 0.342855 4.987 0.21818Z" />
            <path
                d="M12.7273 1.53766C12.748 1.14285 12.8 0.883114 12.9143 0.644153C12.9558 0.550646 12.9974 0.467529 13.0078 0.467529C13.0182 0.467529 12.9974 0.540257 12.9662 0.623373C12.8831 0.851945 12.8727 1.17402 12.9247 1.53766C12.9974 2.00519 13.0286 2.06753 13.5273 2.57662C13.7558 2.81558 14.026 3.11688 14.1299 3.24155L14.3065 3.47013L14.1299 3.30389C13.9117 3.0961 13.413 2.7013 13.2987 2.64935C13.226 2.60779 13.2156 2.60779 13.1636 2.65974C13.1221 2.7013 13.1117 2.76363 13.1117 3.06493C13.1013 3.53246 13.0389 3.82337 12.8831 4.12467C12.8 4.28052 12.7896 4.24935 12.8623 4.07272C12.9143 3.93766 12.9247 3.87532 12.9247 3.42857C12.9247 2.52467 12.8208 2.30649 12.187 1.94285C12.0311 1.84935 11.761 1.71428 11.6052 1.64156C11.4389 1.56883 11.3143 1.50649 11.3247 1.50649C11.3454 1.48571 11.9584 1.66233 12.1974 1.76623C12.561 1.91169 12.6234 1.92207 12.6649 1.91169C12.6961 1.88052 12.7169 1.7974 12.7273 1.53766Z" />
            <path
                d="M5.41299 3.08574C4.97663 2.48314 4.69611 1.54807 4.75845 0.851971L4.77923 0.633789L4.88312 0.654568C5.07014 0.685737 5.39221 0.810413 5.54806 0.903919C5.96364 1.15327 6.15066 1.49613 6.32728 2.34807C6.37923 2.59743 6.45195 2.88833 6.48312 2.98184C6.53507 3.13769 6.73247 3.50132 6.89871 3.72989C7.01299 3.89613 6.94027 3.97924 6.68053 3.95846C6.28572 3.91691 5.75585 3.55327 5.41299 3.08574Z" />
            <path
                d="M12.1974 7.60518C10.1403 6.77402 9.41301 6.05713 9.41301 4.84155C9.41301 4.66492 9.4234 4.51947 9.4234 4.51947C9.43379 4.51947 9.50652 4.58181 9.60002 4.65454C10.0156 4.987 10.4831 5.13246 11.7818 5.31947C12.5403 5.43376 12.9766 5.51687 13.3715 5.65194C14.6286 6.06752 15.4078 6.91947 15.5948 8.07272C15.6468 8.40518 15.6156 9.03895 15.5325 9.37142C15.4598 9.63116 15.252 10.1091 15.2 10.1195C15.1896 10.1195 15.1689 10.0675 15.1689 9.98441C15.1481 9.54804 14.9299 9.13246 14.5663 8.81038C14.1299 8.43635 13.5689 8.15583 12.1974 7.60518Z" />
            <path
                d="M10.7429 7.94804C10.7221 7.7922 10.6702 7.5948 10.639 7.51168L10.587 7.35583L10.6805 7.47012C10.8156 7.62596 10.9195 7.81298 11.013 8.07272C11.0857 8.27012 11.0857 8.33246 11.0857 8.65454C11.0857 8.96622 11.0753 9.03895 11.013 9.21557C10.9091 9.49609 10.7844 9.6935 10.5766 9.91168C10.2026 10.2961 9.71431 10.5039 9.01821 10.5974C8.89353 10.6078 8.54028 10.639 8.22859 10.6597C7.44937 10.7013 6.92989 10.7844 6.46236 10.9506C6.40002 10.9714 6.33769 10.9922 6.3273 10.9818C6.30652 10.961 6.62859 10.774 6.88833 10.6493C7.25197 10.4727 7.626 10.3792 8.44678 10.2338C8.85197 10.1714 9.26756 10.0883 9.37145 10.0467C10.4 9.72467 10.9091 8.92467 10.7429 7.94804Z" />
            <path
                d="M11.6883 9.62075C11.4182 9.02855 11.3558 8.46751 11.5013 7.93764C11.5221 7.88569 11.5428 7.83374 11.5636 7.83374C11.5844 7.83374 11.6467 7.86491 11.7091 7.90647C11.8338 7.98958 12.0935 8.13504 12.7584 8.49868C13.6 8.95582 14.0779 9.30906 14.4104 9.71426C14.7013 10.0675 14.8779 10.4727 14.961 10.9714C15.013 11.2519 14.9818 11.9272 14.9091 12.2078C14.6805 13.0909 14.161 13.7974 13.4026 14.2026C13.2883 14.2649 13.1948 14.3065 13.1844 14.3065C13.174 14.3065 13.2156 14.2026 13.2779 14.0779C13.5273 13.548 13.5584 13.0389 13.3714 12.4675C13.2571 12.1143 13.0182 11.6883 12.5403 10.9714C11.9688 10.1402 11.8338 9.92205 11.6883 9.62075Z" />
            <path
                d="M3.94804 12.8C4.71687 12.1559 5.66233 11.6987 6.53505 11.5533C6.90908 11.4909 7.53246 11.5117 7.87531 11.6052C8.42596 11.7507 8.92466 12.0624 9.1844 12.4468C9.43375 12.8208 9.54804 13.1429 9.66233 13.8598C9.70388 14.1403 9.75583 14.4312 9.76622 14.4935C9.84934 14.8676 10.0156 15.1585 10.2234 15.3143C10.5454 15.5533 11.1065 15.5637 11.6571 15.3559C11.7506 15.3247 11.8338 15.2935 11.8338 15.3039C11.8545 15.3247 11.574 15.5117 11.387 15.6052C11.1273 15.7403 10.9195 15.7818 10.6389 15.7818C10.1402 15.7818 9.71427 15.5221 9.37142 15.0026C9.29869 14.8987 9.15324 14.5974 9.02856 14.3169C8.66492 13.4754 8.47791 13.226 8.05194 12.9455C7.67791 12.7065 7.19999 12.6546 6.83635 12.8312C6.35843 13.0598 6.23375 13.6728 6.56622 14.0468C6.70129 14.2026 6.95064 14.3273 7.15843 14.3585C7.54285 14.4104 7.87531 14.1091 7.87531 13.7247C7.87531 13.4754 7.78181 13.3299 7.53246 13.2156C7.19999 13.0702 6.83635 13.2364 6.84674 13.5585C6.84674 13.6935 6.90908 13.7766 7.04414 13.839C7.12726 13.8805 7.12726 13.8805 7.06492 13.8702C6.76362 13.8078 6.6909 13.4338 6.92986 13.1948C7.22077 12.9039 7.83375 13.0286 8.04155 13.4338C8.12466 13.6 8.13505 13.9325 8.06233 14.1403C7.8857 14.5974 7.387 14.8364 6.87791 14.7013C6.53505 14.6078 6.3896 14.5143 5.97401 14.0883C5.24674 13.3403 4.96622 13.1948 3.92726 13.039L3.72986 13.0078L3.94804 12.8Z" />
            <path
                d="M-1.5169 -3.91689C0.903883 -0.976635 4.63375 3.59479 4.82077 3.84414C4.97661 4.05194 4.91427 4.24934 4.65453 4.39479C4.50908 4.47791 4.20778 4.56103 4.06232 4.56103C3.89609 4.56103 3.69869 4.47791 3.56362 4.34285C3.47012 4.24934 3.06492 3.65713 2.15064 2.23376C1.45453 1.14285 0.862324 0.23895 0.851935 0.22856C0.810376 0.207781 0.810376 0.207782 2.07791 2.47272C2.87791 3.89609 3.13765 4.40518 3.13765 4.46752C3.13765 4.60259 3.09609 4.67531 2.92986 4.86233C2.64934 5.17402 2.52466 5.52726 2.43116 6.26492C2.32726 7.0857 2.04674 7.66752 1.24674 8.65453C0.779207 9.23635 0.70648 9.34025 0.592194 9.57921C0.44674 9.87012 0.405181 10.0364 0.384402 10.4104C0.363623 10.8052 0.405181 11.0545 0.519467 11.4286C0.623363 11.761 0.737649 11.9792 1.01817 12.4052C1.25713 12.7792 1.40258 13.0597 1.40258 13.1636C1.40258 13.2467 1.42336 13.2467 1.79739 13.1636C2.6909 12.9558 3.42856 12.6026 3.83375 12.1662C4.0831 11.8961 4.14544 11.7506 4.14544 11.3766C4.14544 11.1377 4.13505 11.0857 4.07271 10.9402C3.96882 10.7117 3.77142 10.5247 3.34544 10.2338C2.7844 9.84934 2.54544 9.53765 2.4831 9.12207C2.43116 8.76882 2.49349 8.52986 2.80518 7.87531C3.12726 7.19999 3.21038 6.91947 3.26232 6.23376C3.29349 5.79739 3.34544 5.62077 3.47012 5.4857C3.60518 5.34025 3.71947 5.2883 4.04155 5.24674C4.57142 5.17401 4.91427 5.03895 5.1844 4.77921C5.42336 4.56103 5.52726 4.34285 5.53765 4.02077L5.54804 3.78181L5.41297 3.63635C4.92466 3.07531 -1.83897 -4.36365 -1.87014 -4.36365C-1.88053 -4.36365 -1.7143 -4.16624 -1.5169 -3.91689ZM1.67271 10.8571C1.787 10.6597 1.72466 10.4104 1.53765 10.2857C1.36103 10.1714 1.0909 10.2234 1.0909 10.3792C1.0909 10.4208 1.11167 10.4623 1.17401 10.4831C1.26752 10.5351 1.27791 10.587 1.20518 10.7013C1.13245 10.8156 1.13245 10.9195 1.22596 10.9922C1.37142 11.1065 1.56882 11.0441 1.67271 10.8571Z" />
            <path
                d="M5.88051 5.39222C5.63116 5.46495 5.3922 5.73508 5.31948 6.00521C5.27792 6.17144 5.2987 6.47274 5.37142 6.56624C5.48571 6.7117 5.58961 6.75326 5.88051 6.75326C6.45194 6.75326 6.94026 6.50391 6.9922 6.20261C7.04415 5.95326 6.82597 5.6104 6.52467 5.45456C6.36883 5.37144 6.04675 5.34027 5.88051 5.39222ZM6.54545 5.9117C6.62857 5.78702 6.5974 5.65196 6.44155 5.55845C6.16103 5.38183 5.73506 5.52728 5.73506 5.79741C5.73506 5.93248 5.95324 6.07793 6.16103 6.07793C6.2961 6.07793 6.48311 5.99482 6.54545 5.9117Z" />
        </g>
        <g id="logotype">
            <path
                d="M101.687 112V62H109.562L129.109 92.6659H125.101L144.577 62H152.523V112H141.484V80.7681L143.453 81.2631L130.726 101.235H123.413L110.757 81.2631L112.656 80.7681V112H101.687Z" />
            <path
                d="M58.4272 112V62H69.4664V112H58.4272ZM66.8649 112V102.368H94.0763V112H66.8649ZM66.8649 91.1071V81.83H91.6153V91.1071H66.8649ZM66.8649 71.5611V62H93.7247V71.5611H66.8649Z" />
            <path
                d="M26.6343 112C23.0248 112 19.6263 111.359 16.4388 110.077C13.2981 108.794 10.5558 107.032 8.21205 104.788C5.86826 102.499 4.01666 99.843 2.65726 96.8215C1.34474 93.7534 0.688477 90.4564 0.688477 86.9316C0.688477 83.4059 1.36818 80.1322 2.72758 77.1097C4.08698 74.0881 5.962 71.4554 8.35267 69.2116C10.7902 66.9221 13.6262 65.1592 16.8606 63.9229C20.0951 62.6409 23.5639 62 27.2671 62C31.5327 62 35.4001 62.7554 38.8689 64.2661C42.3846 65.7779 45.2908 67.8608 47.5877 70.5168L40.0641 77.865C38.4704 75.851 36.5954 74.3393 34.4391 73.3328C32.2827 72.3252 29.8453 71.821 27.1265 71.821C24.2201 71.821 21.6185 72.4629 19.3216 73.7449C17.0247 74.9812 15.22 76.7431 13.9074 79.0325C12.6418 81.2764 12.009 83.9091 12.009 86.9316C12.009 89.9532 12.6418 92.6092 13.9074 94.8986C15.1731 97.188 16.9075 98.9732 19.1107 100.255C21.3139 101.537 23.8451 102.178 26.7045 102.178C29.6109 102.178 32.0719 101.651 34.0876 100.598C36.1501 99.4997 37.7204 97.9434 38.7985 95.9284C39.9236 93.8678 40.4861 91.3728 40.4861 88.4424L47.7987 93.2501L25.6498 92.9069V83.7724H51.7363V85.352C51.7363 91.1662 50.6581 96.0661 48.5019 100.05C46.3924 103.987 43.4393 106.963 39.6423 108.977C35.8923 110.992 31.5563 112 26.6343 112Z" />
            <path
                d="M10.55 49.9991V41.5291H23.08C26.2534 41.5291 29.03 40.8757 31.41 39.5691C33.79 38.2157 35.6334 36.3257 36.94 33.8991C38.2934 31.4724 38.97 28.6024 38.97 25.2891C38.97 22.0691 38.2934 19.2691 36.94 16.8891C35.5867 14.4624 33.72 12.5957 31.34 11.2891C28.96 9.93573 26.2067 9.25906 23.08 9.25906H10.34V0.789062H23.22C26.86 0.789062 30.22 1.39573 33.3 2.60906C36.4267 3.82239 39.1334 5.54906 41.42 7.78906C43.7534 9.98239 45.55 12.5724 46.81 15.5591C48.1167 18.5457 48.77 21.8124 48.77 25.3591C48.77 28.9057 48.1167 32.1957 46.81 35.2291C45.55 38.2157 43.7767 40.8291 41.49 43.0691C39.2034 45.2624 36.4967 46.9657 33.37 48.1791C30.29 49.3924 26.9534 49.9991 23.36 49.9991H10.55ZM4.04004 49.9991V0.789062H13.56V49.9991H4.04004Z" />
            <path
                d="M53.395 49.9991L73.205 0.789062H80.975L100.715 49.9991H90.565L75.305 9.60906H78.805L63.335 49.9991H53.395ZM63.895 40.8291V32.8491H90.355V40.8291H63.895Z" />
            <path
                d="M114.227 29.4191V21.9991H125.637C127.97 21.9991 129.767 21.4157 131.027 20.2491C132.334 19.0357 132.987 17.3791 132.987 15.2791C132.987 13.3657 132.334 11.7791 131.027 10.5191C129.767 9.2124 127.97 8.55906 125.637 8.55906H114.227V0.789062H126.477C129.65 0.789062 132.427 1.41906 134.807 2.67906C137.234 3.89239 139.1 5.57239 140.407 7.71906C141.76 9.86573 142.437 12.3391 142.437 15.1391C142.437 18.0324 141.76 20.5524 140.407 22.6991C139.1 24.7991 137.234 26.4557 134.807 27.6691C132.38 28.8357 129.557 29.4191 126.337 29.4191H114.227ZM107.227 49.9991V0.789062H116.747V49.9991H107.227ZM134.107 49.9991L117.867 28.7191L126.617 25.9891L145.657 49.9991H134.107Z" />
            <path
                d="M181.496 49.9991L160.146 24.3091L180.936 0.789062H192.836L169.666 26.3391V21.9291L193.606 49.9991H181.496ZM151.746 49.9991V0.789062H161.266V49.9991H151.746Z" />
            <g opacity="0.5">
                <path d="M207.575 112V62H214.887V112H207.575Z" />
                <path
                    d="M168.035 112H160.722V102.332L175.066 62H184.7L199.044 102.26V112H191.73V103.125L189.973 98.2196H169.793L168.035 103.125V112ZM179.848 68.6376L171.551 91.8702H188.215L179.848 68.6376Z" />
            </g>
        </g>
        <g id="logotype-horizontal">
            <path
                d="M7.46689 49V39.4221H19.7943C22.7998 39.4221 25.4297 38.8437 27.6838 37.687C29.938 36.4839 31.6756 34.7488 32.8966 32.4816C34.1176 30.2144 34.7281 27.5307 34.7281 24.4306C34.7281 21.3305 34.0941 18.67 32.8261 16.449C31.6051 14.228 29.8676 12.5161 27.6134 11.313C25.4062 10.11 22.7998 9.5085 19.7943 9.5085H7.11468V0H19.9352C23.6921 0 27.1438 0.601511 30.2902 1.80453C33.4836 2.96128 36.2543 4.65014 38.6024 6.8711C40.9975 9.0458 42.829 11.6369 44.0969 14.6445C45.4118 17.6058 46.0693 20.8909 46.0693 24.5C46.0693 28.0628 45.4118 31.348 44.0969 34.3555C42.829 37.3631 41.0209 39.9542 38.6729 42.1289C36.3248 44.3036 33.554 45.9924 30.3607 47.1955C27.2142 48.3985 23.786 49 20.0761 49H7.46689ZM0 49V0H11.0594V49H0Z"
            />
            <path
                d="M45.1469 49L64.8708 0H74.8736L94.3861 49H82.6927L67.7589 8.32861H71.7741L56.629 49H45.1469ZM56.3473 40.1161V31.2323H83.4676V40.1161H56.3473Z"
            />
            <path
                d="M103.875 28.8031V20.7521H114.371C116.578 20.7521 118.269 20.1969 119.443 19.0864C120.664 17.9759 121.274 16.4721 121.274 14.5751C121.274 12.8168 120.687 11.3593 119.513 10.2025C118.339 9.0458 116.648 8.46742 114.441 8.46742H103.875V0H115.709C118.997 0 121.885 0.624646 124.374 1.87394C126.863 3.07696 128.812 4.76582 130.22 6.94051C131.629 9.1152 132.334 11.6138 132.334 14.4363C132.334 17.305 131.629 19.8267 130.22 22.0014C128.812 24.1298 126.839 25.7956 124.303 26.9986C121.767 28.2016 118.785 28.8031 115.357 28.8031H103.875ZM95.4219 49V0H106.481V49H95.4219ZM122.472 49L106.974 27.9009L117.118 25.194L135.574 49H122.472Z"
            />
            <path
                d="M166.264 49L146.117 23.4589L165.63 0H179.296L157.318 25.4717V21.0297L180 49H166.264ZM136.185 49V0H147.244V49H136.185Z"
            />
            <path
                d="M277.428 50V0H285.024L303.88 30.6657H300.014L318.803 0H326.467V50H315.818V18.7677L317.717 19.2635L305.441 39.2352H298.386L286.177 19.2635L288.009 18.7677V50H277.428Z"
            />
            <path
                d="M235.697 50V0H246.346V50H235.697ZM243.837 50V40.3683H270.086V50H243.837ZM243.837 29.1077V19.83H267.712V29.1077H243.837ZM243.837 9.5609V0H269.747V9.5609H243.837Z"
            />
            <path
                d="M205.029 50C201.547 50 198.268 49.359 195.194 48.0769C192.164 46.7949 189.519 45.0321 187.258 42.7885C184.997 40.4991 183.211 37.8434 181.899 34.8214C180.633 31.7537 180 28.457 180 24.9313C180 21.4057 180.656 18.1319 181.967 15.1099C183.279 12.0879 185.087 9.45513 187.393 7.21154C189.745 4.92216 192.481 3.15934 195.601 1.92308C198.721 0.641025 202.067 0 205.639 0C209.754 0 213.485 0.755495 216.831 2.26648C220.222 3.77747 223.026 5.86081 225.241 8.51649L217.984 15.8653C216.446 13.8507 214.638 12.3397 212.558 11.3324C210.478 10.3251 208.126 9.82143 205.503 9.82143C202.7 9.82143 200.19 10.4625 197.975 11.7445C195.759 12.9808 194.018 14.7436 192.752 17.033C191.531 19.2765 190.92 21.9093 190.92 24.9313C190.92 27.9533 191.531 30.6089 192.752 32.8984C193.973 35.1877 195.646 36.9734 197.771 38.2555C199.896 39.5376 202.338 40.1786 205.096 40.1786C207.9 40.1786 210.274 39.652 212.218 38.5989C214.208 37.5 215.723 35.9432 216.763 33.9286C217.848 31.8681 218.391 29.3727 218.391 26.4423L225.445 31.25L204.079 30.9066V21.7719H229.243V23.3517C229.243 29.1666 228.203 34.0659 226.123 38.0495C224.088 41.9872 221.24 44.9634 217.577 46.978C213.959 48.9927 209.777 50 205.029 50Z"
            />
            <g opacity="0.5">
                <path d="M380.196 50.0047V3H387.25V50.0047H380.196Z" />
                <path
                    d="M342.054 50.0047H335V40.9158L348.837 3H358.129L371.966 40.848V50.0047H364.912V41.6619L363.217 37.0496H343.75L342.054 41.6619V50.0047ZM353.449 9.24017L345.446 31.0808H361.521L353.449 9.24017Z"
                />
            </g>
        </g>
        <g id="fire">
            <path
                d="M10.33 12.6l5.805-6.772 6.258 7.301 4.049-4.724 3.228 3.766a13.35 13.35 0 0 1 3.214 8.689v.429c0 3.417-1.357 6.694-3.774 9.111s-5.693 3.774-9.11 3.774h0c-7.116 0-12.884-5.768-12.884-12.884h0A13.35 13.35 0 0 1 10.33 12.6z" />
        </g>
        <g id="stars">
            <path
                d="M9.996 5.494a6.67 6.67 0 0 1-6.669 6.669 6.67 6.67 0 0 1 6.669 6.669 6.67 6.67 0 0 1 6.669-6.669 6.67 6.67 0 0 1-6.669-6.669zm18.341 20.008A8.34 8.34 0 0 0 20 17.165a8.34 8.34 0 0 0 8.337-8.337 8.34 8.34 0 0 0 8.337 8.337 8.34 8.34 0 0 0-8.337 8.337z" />
            <path
                d="M28.337 25.502v1.667m0-18.341V7.161M16.665 35.506v1.667m0-13.338v-1.667m-6.669-3.335V20.5m0-16.674v1.667" />
            <path
                d="M16.665 23.001a6.67 6.67 0 0 1-6.669 6.669 6.67 6.67 0 0 1 6.669 6.67 6.67 6.67 0 0 1 6.67-6.67 6.67 6.67 0 0 1-6.67-6.669z" />
        </g>
        <g id="chat">
            <path
                d="M11.797 36.847c4.513 0 8.173-3.66 8.173-8.173S16.312 20.5 11.797 20.5s-8.173 3.66-8.173 8.173m8.181 8.182a8.16 8.16 0 0 1-3.442-.757l-5.03 1.068 1.052-5.04a8.17 8.17 0 0 1-.762-3.453m7.305-8.126A11.03 11.03 0 0 1 10 16.122c0-6.695 5.997-12.067 13.333-12.067s13.333 5.372 13.333 12.067c0 3.957-2.103 7.44-5.332 9.637l-.002 4.742-5.232-2.577a14.68 14.68 0 0 1-2.768.265 14.61 14.61 0 0 1-3.412-.402" />
        </g>
        <g id="list">
            <path d="M4.994 13.831h16.674m13.338-6.67H4.994m0 13.339h10.004M4.994 27.169h8.337" />
            <path
                d="M4.994 13.831h16.674m13.338-6.67H4.994m0 13.339h10.004M4.994 27.169h8.337m21.675 6.67H4.994" />
            <path
                d="M28.337 27.169a6.67 6.67 0 0 0-6.669-6.669 6.67 6.67 0 0 1 6.669 6.669m0-13.338a6.67 6.67 0 0 0 6.669 6.669 6.67 6.67 0 0 0-6.669 6.669 6.67 6.67 0 0 1 6.669-6.669 6.67 6.67 0 0 1-6.669-6.669 6.67 6.67 0 0 1-6.669 6.669 6.67 6.67 0 0 0 6.669-6.669" />
        </g>
        <g id="fire">
            <path
                d="M10.33 12.6l5.805-6.772 6.258 7.301 4.049-4.724 3.228 3.766a13.35 13.35 0 0 1 3.214 8.689v.429c0 3.417-1.357 6.694-3.774 9.111s-5.693 3.774-9.11 3.774h0c-7.116 0-12.884-5.768-12.884-12.884h0A13.35 13.35 0 0 1 10.33 12.6z"></path>
        </g>
    </defs>
</svg>